<?xml version="1.0" encoding="UTF-8"?>
<svg id="Layer_2" data-name="Layer 2" xmlns="http://www.w3.org/2000/svg" viewBox="0 0 797.09 91.2">
  <defs></defs>
  <g id="Layer_1-2" data-name="Layer 1">
    <g>
      <polygon class="cls-1" points="24.03 51.31 24.03 51.54 23.84 51.31 24.03 51.31"></polygon>
      <g>
        <path class="cls-1" d="M87.36,17.88v55.66c0,8.75-7.1,15.84-15.85,15.84h-.87l-12.43-14.13V31.17H19.45l-11.27-12.81v-.48c0-8.76,7.09-15.85,15.84-15.85h47.49c8.75,0,15.85,7.09,15.85,15.85Z"></path>
        <g>
          <path class="cls-1" d="M19.45,31.17H0v20.54h37.5l-18.05-20.54ZM23.84,51.31h.19v.23l-.19-.23Z"></path>
          <polygon class="cls-1" points="24.03 51.31 24.03 51.54 23.84 51.31 24.03 51.31"></polygon>
          <polygon class="cls-1" points="58.13 75.16 58.13 89.39 37.59 89.39 37.59 51.8 58.13 75.16"></polygon>
        </g>
        <rect class="cls-1" y="67.36" width="22.01" height="22.03"></rect>
      </g>
      <g>
        <g>
          <g>
            <path class="cls-1" d="M249.61,55.2v8.35h-49.98c1.04,4.21,3.24,7.52,6.58,9.91,3.34,2.4,7.04,3.59,11.1,3.59,4.6,0,8.72-1.62,12.35-4.87l.81-.81,13.22,6.38c-7.46,8.97-16.25,13.45-26.38,13.45-4.41,0-8.62-.87-12.64-2.61-4.02-1.74-7.48-4.08-10.38-7.02-2.9-2.94-5.21-6.44-6.93-10.52-1.72-4.08-2.58-8.34-2.58-12.78,0-5.99,1.46-11.52,4.38-16.58,2.92-5.06,6.87-9.06,11.86-12,4.99-2.94,10.42-4.41,16.29-4.41,8.27,0,15.48,2.85,21.63,8.55,6.15,5.7,9.7,12.82,10.67,21.37ZM200.32,50.91h33.86c-1.43-3.44-3.68-6.21-6.75-8.32-3.07-2.11-6.45-3.16-10.12-3.16s-7.11,1.04-10.2,3.13c-3.09,2.09-5.35,4.87-6.78,8.35Z"></path>
            <path class="cls-1" d="M296.46,26.84h15.42l-27.54,62.56h-10.67l-25.16-62.56h15.19l15.65,38.32,17.1-38.32Z"></path>
            <path class="cls-1" d="M339.42,75.27v-.14c-3.28,0-5.66-.79-7.12-2.36-.94-1.05-1.65-2.44-2.13-4.18-.49-1.73-.68-3.11-.61-4.08.08-.99.08-1.61,0-1.84v-21.62h14.5v-14.09h-28.7v35.01c-.14.38-.14,1.4,0,3.03.15,1.61.37,3.33.61,5.13.25,1.78.9,3.83,1.94,6.1,1.04,2.29,2.36,4.3,3.94,6.02,4.29,4.76,10.15,7.13,17.57,7.13h5.34v-14.13h-5.34Z"></path>
            <path class="cls-1" d="M329.56,10.56v16.4l-11.72-7.55c-1.55-1.01-2.49-2.73-2.49-4.57v-4.29h14.21Z"></path>
            <path class="cls-1" d="M399.49,32.64v-5.68h14.15v62.44h-14.15v-5.45c-2.47,2.28-5.38,4.06-8.73,5.33-3.34,1.28-6.74,1.91-10.17,1.91-5.95,0-11.46-1.48-16.52-4.43-5.06-2.96-9.07-6.98-12.03-12.06-2.96-5.08-4.44-10.6-4.44-16.55s1.48-11.52,4.44-16.58c2.96-5.06,6.97-9.06,12.03-12,5.06-2.94,10.57-4.41,16.52-4.41,3.44,0,6.86.65,10.26,1.94,3.4,1.3,6.28,3.14,8.64,5.54ZM367.43,72.01c3.79,3.98,8.18,5.97,13.16,5.97s9.38-1.99,13.19-5.97c3.81-3.98,5.71-8.6,5.71-13.86s-1.91-9.99-5.71-13.97c-3.81-3.98-8.2-5.97-13.19-5.97s-9.37,1.99-13.16,5.97c-3.79,3.98-5.68,8.64-5.68,13.97s1.89,9.88,5.68,13.86Z"></path>
            <path class="cls-1" d="M452.89,25.16c8.46,0,14.91,2.62,19.34,7.86,4.42,5.24,6.64,12.17,6.64,20.79v35.6h-14.15v-35.6c0-2.05-.16-3.88-.49-5.51-.33-1.62-.79-2.95-1.39-3.97-.6-1.02-1.26-1.88-1.97-2.58-.72-.7-1.55-1.21-2.49-1.54s-1.85-.56-2.7-.7c-.85-.13-1.78-.2-2.78-.2-4.64,0-8.27,1.46-10.9,4.38-2.63,2.92-3.94,6.95-3.94,12.09v33.63h-14.15V26.96h14.15v4.23c4.21-4.02,9.16-6.03,14.84-6.03Z"></path>
            <path class="cls-1" d="M514.07,56.3l32.82,33.11h-19.36l-23.42-23.77-1.86,1.68v22.09h-14.15V2.03h14.15v46.79l22.79-21.86h19.13l-30.09,29.34Z"></path>
            <path class="cls-1" d="M600.07,2.15v49.86h12.12v13.86h-12.12v23.54h-14.03v-23.54h-37.16v-9.57l39.83-54.15h11.36ZM569.46,52.01h16.58v-22.67l-16.58,22.67Z"></path>
            <path class="cls-1" d="M634.34,75.37l31.37.12v13.91h-54.85v-9.74l35.25-36.58c7.73-8.23,10.42-15.15,8.06-20.76-1.04-2.4-2.86-4.38-5.45-5.94-2.59-1.56-5.08-2.35-7.48-2.35-5.84,0-10.11,1.41-12.81,4.23-1.04,1.08-1.88,2.45-2.49,4.09-.62,1.64-.97,2.84-1.04,3.59s-.12,1.32-.12,1.71c-9.28-1.2-13.91-1.83-13.91-1.91.77-8.23,3.92-14.58,9.45-19.05,5.53-4.46,12.5-6.7,20.93-6.7,5.3,0,10.4,1.59,15.31,4.75,4.91,3.17,8.41,7.17,10.49,12,.93,2.17,1.53,4.42,1.8,6.75.27,2.34.16,5.04-.32,8.09-.48,3.05-1.76,6.4-3.83,10.03-2.07,3.63-4.86,7.32-8.38,11.07l-1.16,1.22c-.81.85-3.04,3.16-6.7,6.93-3.65,3.77-8.36,8.61-14.12,14.52Z"></path>
          </g>
          <g>
            <path class="cls-1" d="M698.49,79.55h8.03v4.52c-.53.41-1.41.85-2.62,1.32-1.25.49-2.45.73-3.55.73-1.86,0-3.61-.47-5.19-1.4-1.58-.93-2.85-2.21-3.77-3.81-.92-1.59-1.38-3.35-1.38-5.23s.48-3.65,1.42-5.28c.94-1.63,2.24-2.94,3.85-3.9,1.61-.96,3.37-1.45,5.23-1.45,2.46,0,4.63.77,6.46,2.29l1.51,1.2,3-3.73-1.49-1.2c-1.34-1.08-2.86-1.93-4.51-2.51-1.65-.58-3.37-.87-5.12-.87-2.2,0-4.29.41-6.21,1.22-1.92.81-3.56,1.92-4.9,3.3-1.33,1.39-2.39,3.04-3.16,4.93-.76,1.88-1.15,3.9-1.15,6s.41,4.11,1.22,6.02c.81,1.9,1.92,3.57,3.29,4.95,1.38,1.38,3.04,2.5,4.92,3.31,1.89.81,3.9,1.23,5.98,1.23,1.23,0,2.45-.15,3.62-.44,1.18-.3,2.23-.69,3.13-1.16.9-.48,1.66-.93,2.26-1.35.61-.43,1.14-.85,1.59-1.27l.64-.65v-11.85h-13.1v5.07Z"></path>
            <path class="cls-1" d="M737.01,68.69c-2.67,0-4.82.98-6.39,2.91-1.58-1.93-3.86-2.91-6.78-2.91-1.83,0-3.46.62-4.85,1.85v-1.24h-5.04v21.26h5.04v-11.44c0-1.68.43-3.02,1.29-3.97.85-.94,2.05-1.42,3.56-1.42.33,0,.63.02.91.07.27.04.57.12.88.23.3.1.56.27.79.48.23.22.44.5.64.84.19.33.34.77.45,1.29.11.53.16,1.15.16,1.82v12.1h5.04v-12.58c.04-.71.17-1.33.39-1.86.22-.52.48-.94.77-1.23.29-.29.64-.53,1.03-.71.4-.18.76-.3,1.09-.36.68-.12,1.45-.11,2.12,0,.35.06.73.2,1.14.4.41.2.77.47,1.07.79.3.33.55.8.75,1.38.2.59.3,1.3.3,2.1v12.06h5.04v-12.06c0-2.87-.86-5.24-2.55-7.06-1.7-1.82-4-2.74-6.84-2.74Z"></path>
            <path class="cls-1" d="M766.12,70.2c-1.72-1-3.62-1.51-5.63-1.51-1.15,0-2.32.22-3.48.66-1.04.4-1.95.96-2.71,1.66v-10.09h-5.04v29.64h5.04v-1.66c.79.68,1.71,1.22,2.73,1.61,1.13.43,2.29.65,3.46.65,1.51,0,2.97-.3,4.35-.9,1.38-.6,2.59-1.41,3.59-2.41,1-1,1.81-2.21,2.41-3.59.59-1.38.9-2.85.9-4.35,0-2.02-.51-3.91-1.51-5.62-1-1.71-2.38-3.09-4.1-4.09ZM766.69,79.92c0,1.72-.63,3.25-1.88,4.56-1.24,1.3-2.7,1.96-4.33,1.96s-3.08-.66-4.32-1.96c-1.24-1.3-1.87-2.84-1.87-4.56s.63-3.29,1.87-4.6c1.24-1.3,2.69-1.96,4.32-1.96s3.08.66,4.33,1.96c1.25,1.31,1.88,2.85,1.88,4.6Z"></path>
            <polygon class="cls-1" points="792.06 60.96 792.06 74.09 779.33 74.09 779.33 60.96 774.29 60.96 774.29 90.56 779.33 90.56 779.33 79.14 792.06 79.14 792.06 90.56 797.09 90.56 797.09 60.96 792.06 60.96"></polygon>
          </g>
        </g>
        <path class="cls-1" d="M162.82,32.69V1.88h14.13v87.38h-14.13v-5.44c-2.28,2.28-5.14,4.05-8.6,5.33-3.46,1.27-6.88,1.91-10.28,1.91-4.44,0-8.7-.87-12.77-2.61-4.07-1.74-7.59-4.08-10.54-7.04-2.95-2.95-5.3-6.47-7.04-10.54-1.74-4.07-2.61-8.35-2.61-12.83,0-5.94,1.48-11.45,4.43-16.5,2.95-5.06,6.96-9.06,12.02-12.02,5.06-2.95,10.56-4.43,16.5-4.43,3.4,0,6.8.66,10.22,1.97,3.42,1.31,6.3,3.18,8.66,5.62ZM130.79,71.89c3.78,3.98,8.16,5.97,13.14,5.97s9.37-1.99,13.17-5.97c3.8-3.98,5.7-8.59,5.7-13.84s-1.9-9.88-5.7-13.9c-3.8-4.01-8.19-6.02-13.17-6.02s-9.36,2-13.14,5.99c-3.78,4-5.68,8.64-5.68,13.93s1.89,9.86,5.68,13.84Z"></path>
      </g>
    </g>
  </g>
</svg>