<svg xmlns="http://www.w3.org/2000/svg" viewBox="0 0 126 64" fill="none" role="img" aria-label="qnop">
<!-- qnop brand asset. Copyright (c) 2026-present devtank42 GmbH.
     Wordmark set in Manrope (SIL Open Font License 1.1), embedded as outlines. -->
  <g transform="translate(2 4.25) scale(0.75)"><path fill-rule="evenodd" fill="#FFFFFF" d="M52.25 34.69A22 22 0 1 0 40.3 48.94L56 53ZM43 29A12 12 0 1 0 19 29A12 12 0 1 0 43 29Z"/><circle cx="31" cy="29" r="6.6" fill="#1292EE"/></g>
  <path fill="#FFFFFF" transform="translate(47 41.5)" d="M18.07 0L18.07 -10.59Q18.07 -11.63 17.93 -12.89Q17.78 -14.16 17.26 -15.33Q16.74 -16.5 15.72 -17.25Q14.69 -18.01 12.94 -18.01Q12 -18.01 11.08 -17.7Q10.16 -17.4 9.43 -16.65Q8.7 -15.91 8.24 -14.62Q7.78 -13.32 7.78 -11.31L4.87 -12.55Q4.87 -15.36 5.96 -17.64Q7.05 -19.92 9.17 -21.28Q11.29 -22.63 14.38 -22.63Q16.83 -22.63 18.41 -21.82Q20 -21 20.94 -19.74Q21.88 -18.48 22.33 -17.05Q22.77 -15.62 22.91 -14.35Q23.04 -13.08 23.04 -12.28L23.04 0ZM2.81 0L2.81 -22L7.19 -22L7.19 -15.18L7.78 -15.18L7.78 0ZM37.71 0.61Q34.41 0.61 31.95 -0.88Q29.48 -2.36 28.13 -4.98Q26.77 -7.6 26.77 -11Q26.77 -14.46 28.16 -17.07Q29.54 -19.68 32.01 -21.14Q34.47 -22.61 37.71 -22.61Q41.03 -22.61 43.51 -21.12Q45.98 -19.64 47.34 -17.02Q48.69 -14.4 48.69 -11Q48.69 -7.58 47.33 -4.96Q45.96 -2.34 43.49 -0.87Q41.01 0.61 37.71 0.61ZM37.71 -3.99Q40.65 -3.99 42.07 -5.95Q43.5 -7.9 43.5 -11Q43.5 -14.2 42.05 -16.1Q40.6 -18.01 37.71 -18.01Q35.74 -18.01 34.47 -17.12Q33.21 -16.24 32.59 -14.66Q31.97 -13.08 31.97 -11Q31.97 -7.8 33.42 -5.9Q34.88 -3.99 37.71 -3.99ZM63.75 0.61Q60.53 0.61 58.35 -0.92Q56.17 -2.44 55.07 -5.08Q53.97 -7.72 53.97 -11Q53.97 -14.32 55.07 -16.95Q56.17 -19.58 58.3 -21.09Q60.43 -22.61 63.57 -22.61Q66.69 -22.61 68.99 -21.1Q71.29 -19.6 72.54 -16.97Q73.8 -14.34 73.8 -11Q73.8 -7.7 72.55 -5.07Q71.31 -2.44 69.05 -0.92Q66.79 0.61 63.75 0.61ZM53.14 9.78L53.14 -22L57.48 -22L57.48 -6.56L58.09 -6.56L58.09 9.78ZM63 -3.79Q64.91 -3.79 66.16 -4.75Q67.4 -5.7 68 -7.34Q68.6 -8.98 68.6 -11Q68.6 -13 67.99 -14.64Q67.38 -16.28 66.1 -17.24Q64.81 -18.21 62.84 -18.21Q60.96 -18.21 59.78 -17.3Q58.6 -16.4 58.04 -14.78Q57.48 -13.16 57.48 -11Q57.48 -8.88 58.04 -7.24Q58.6 -5.6 59.81 -4.7Q61.02 -3.79 63 -3.79Z"/>
</svg>
