<svg xmlns="http://www.w3.org/2000/svg" viewBox="522 374 998 1296">

<path d="M 1171.02 520.958 C 1179.49 490.629 1189.86 471.956 1211.52 448.715 C 1284.81 370.074 1422.14 386.122 1474.83 482.3 C 1495.59 520.582 1500.57 565.456 1488.72 607.36 C 1476.72 648.325 1448.79 682.764 1411.19 702.962 C 1398.1 710.123 1385.25 714.3 1370.73 717.463 C 1366.35 718.418 1359.76 719.377 1355.77 720.623 C 1355.82 720.992 1355.87 721.362 1355.92 721.731 C 1360.25 769.458 1363.28 817.681 1366.95 865.461 L 1391.3 1195.62 C 1396.51 1261.14 1401.37 1326.69 1405.87 1392.27 C 1408.4 1425.21 1412.98 1461.79 1412.89 1494.28 C 1412.83 1514.35 1402.03 1542.65 1389.24 1558.17 C 1367.06 1585.08 1341.79 1599.34 1306.8 1602.44 C 1263.54 1606.27 1220.21 1608.86 1176.98 1612.04 L 919.22 1631.02 L 790.264 1640.63 C 771.043 1642.07 733.812 1645.88 715.867 1644.24 C 693.322 1642.07 671.9 1633.37 654.233 1619.2 C 607.935 1581.8 612.552 1539 607.768 1485.36 C 603.791 1440.77 601.502 1396.04 598.104 1351.42 L 568.067 953.362 L 553.09 755.972 C 551.464 734.154 546.139 688.199 547.29 669.637 C 548.739 644.33 558.342 620.173 574.661 600.777 C 608.622 559.822 644.475 559.968 692.789 556.486 L 782.905 549.833 L 1034.33 531.337 C 1079.93 528.338 1125.49 524.878 1171.02 520.958 z" fill="rgb(255,255,255)" transform="translate(0,0)"></path>
<path d="M 1171.02 520.958 C 1179.49 490.629 1189.86 471.956 1211.52 448.715 C 1284.81 370.074 1422.14 386.122 1474.83 482.3 C 1495.59 520.582 1500.57 565.456 1488.72 607.36 C 1476.72 648.325 1448.79 682.764 1411.19 702.962 C 1398.1 710.123 1385.25 714.3 1370.73 717.463 C 1366.35 718.418 1359.76 719.377 1355.77 720.623 C 1349.18 721.725 1331.46 721.312 1323.94 721.243 C 1302.06 721.056 1280.18 720.44 1258.31 719.396 C 1245.62 718.913 1224.53 717.904 1212.67 718.881 C 1202.48 725.83 1166.57 755.419 1157.47 755.605 C 1153.32 753.802 1150.64 751.804 1150.9 746.588 C 1151.38 737.053 1152.24 727.476 1152.97 717.949 C 1154.57 696.147 1156.36 674.358 1158.36 652.588 C 1162.07 609.866 1163.91 563.038 1171.02 520.958 z" fill="rgb(11,111,188)" transform="translate(0,0)"></path>
<path d="M 1324.32 528.017 C 1343.98 526.07 1361.49 540.403 1363.48 560.051 C 1365.46 579.7 1351.16 597.244 1331.52 599.265 C 1311.82 601.29 1294.22 586.944 1292.23 567.244 C 1290.24 547.543 1304.62 529.968 1324.32 528.017 z" fill="rgb(255,255,255)" transform="translate(0,0)"></path>
<path d="M 1223.87 1300.43 C 1226.97 1300.09 1230.87 1300.09 1233.98 1300.06 C 1259.71 1299.8 1265.88 1338.2 1247.15 1351.96 C 1243.48 1354.65 1242.7 1355.46 1237.82 1355.89 C 1214.83 1357.94 1191.79 1359.62 1168.79 1361.47 C 1120.49 1365.61 1072.15 1369.22 1023.77 1372.3 C 943.996 1377.56 863.568 1385.07 784.249 1390.01 C 773.957 1390.61 765.816 1391.64 757.133 1384.73 C 744.32 1374.54 743.754 1353.63 754.154 1341.56 C 758.725 1336.19 764.434 1334.69 771.218 1333.87 C 789.675 1331.65 808.628 1330.75 827.181 1329.3 C 868.971 1325.99 910.788 1323.03 952.628 1320.43 L 1223.87 1300.43 z" fill="rgb(228,234,241)" transform="translate(0,0)"></path>
<path d="M 1198.42 1093.6 C 1220.1 1091.82 1235.57 1091.4 1240.28 1119.39 C 1242.28 1131.29 1234.07 1146.14 1221.22 1147.73 C 1205.73 1149.65 1189.4 1150.5 1173.55 1151.68 L 1085.53 1158.61 L 777.245 1181.95 C 758.186 1183.71 736.695 1182.16 734.709 1157.51 C 734.029 1149.6 736.606 1141.76 741.845 1135.79 C 753.22 1122.99 789.077 1123.53 806.64 1122.34 C 830.732 1120.77 854.808 1118.98 878.866 1116.98 L 1198.42 1093.6 z" fill="rgb(228,234,241)" transform="translate(0,0)"></path>
<path d="M 1122.71 1001.42 C 1131.5 1000.02 1143.48 1000.71 1150.87 1006.19 C 1157.82 1011.3 1162.4 1019.01 1163.58 1027.55 C 1164.75 1035.96 1162.38 1044.48 1157.02 1051.07 C 1145.08 1065.5 1114.35 1063.94 1096.32 1065.17 C 1075.02 1066.65 1053.74 1068.38 1032.49 1070.36 L 737.981 1092.59 C 717.965 1095.25 698.884 1087.22 696.323 1065.09 C 695.358 1057.13 697.713 1049.13 702.835 1042.96 C 715.043 1028.21 744.518 1030.19 763.087 1028.83 L 835.36 1023.16 L 1122.71 1001.42 z" fill="rgb(11,111,188)" transform="translate(0,0)"></path>
<path d="M 1187.5 796.379 C 1201.74 796.957 1212.58 804.499 1215.56 818.622 C 1218.45 832.296 1212.31 849.287 1197.42 852.041 C 1181.5 854.984 1164.08 855.627 1147.95 856.788 L 1058.11 862.925 L 884.92 875.958 C 838.102 879.38 789.393 882.022 742.874 887.106 C 705.466 888.315 702.252 837.531 732.044 830.755 C 745.145 827.775 770.532 827.003 784.991 826.157 C 809.935 824.923 834.859 823.295 859.751 821.273 C 923.038 815.959 986.367 811.178 1049.73 806.93 C 1095.62 803.011 1141.55 799.494 1187.5 796.379 z" fill="rgb(228,234,241)" transform="translate(0,0)"></path>
<path d="M 1187.17 901.436 C 1202.99 899.763 1219.71 909.67 1220.4 926.329 C 1221.11 943.252 1213.11 954.636 1196.28 956.668 C 1180.9 958.523 1165.63 959.315 1150.34 960.333 C 1125.11 961.942 1099.9 963.842 1074.72 966.034 C 967.648 975.321 860.483 983.519 753.244 990.626 C 734.157 991.122 722.444 984.533 719.775 963.81 C 717.988 949.937 727.618 937.157 741.55 935.016 C 756.826 932.668 772.387 931.627 787.938 930.422 L 872.939 924.23 L 1187.17 901.436 z" fill="rgb(228,234,241)" transform="translate(0,0)"></path>
<path d="M 1116.77 1199.45 C 1153.23 1195.81 1160.24 1251.52 1125.51 1256.65 C 1113.45 1258.43 1100.48 1258.93 1088.24 1259.78 L 1021.42 1264.52 C 939.224 1270.58 853.59 1275.85 771.813 1283.23 C 753.786 1283.85 741.153 1275.84 739.411 1257.39 C 736.026 1221.56 775.44 1225.12 798.734 1223.47 L 869.337 1218.54 L 965.387 1210.79 C 1016.89 1207.05 1064.95 1204.31 1116.77 1199.45 z" fill="rgb(228,234,241)" transform="translate(0,0)"></path>
<path d="M 1032.73 696.615 C 1044.13 695.691 1057.73 693.426 1067.16 700.75 C 1073.28 705.642 1078.35 711.957 1078.98 720.122 C 1081.79 756.737 1048.46 753.336 1025.52 755.124 L 967.26 759.559 C 894.086 765.011 820.156 768.956 747.218 775.822 C 744.233 776.176 741.244 776.493 738.252 776.771 C 727.131 777.807 719.895 777.13 710.907 769.754 C 694.016 755.893 698.024 724.5 721.239 720.609 C 727.997 719.477 734.441 718.848 741.291 718.235 C 778.589 714.899 816.007 713.182 853.36 710.656 C 913.204 706.712 972.833 699.915 1032.73 696.615 z" fill="rgb(228,234,241)" transform="translate(0,0)"></path>
<path d="M 975.399 1422.59 C 995.216 1420.81 1018.98 1419.89 1022.01 1446.36 C 1022.99 1454.84 1020.4 1463.34 1014.86 1469.83 C 1011.54 1473.66 1006.84 1476.78 1001.85 1477.47 C 977.904 1480.78 951.479 1481.91 927.423 1483.59 L 797.731 1493.39 C 786.591 1494.65 773.359 1495.94 763.789 1489.13 C 757.702 1484.73 753.74 1477.98 752.867 1470.52 C 747.905 1431.51 790.401 1436.46 815.472 1434.45 C 823.308 1433.82 831.202 1433.41 839.046 1432.86 L 975.399 1422.59 z" fill="rgb(228,234,241)" transform="translate(0,0)"></path>
<metadata><recraft-signature>{"signed_by": "recraft", "signature_b64": "h60pOUxZItyGlGF2L7OjEv/vAaAfQisgcsHpnXJF6EoSZC+bFOF8pOdHcTRrn2/lyGKhgNXdRiQunALC8W8gDw==", "signing_algo": "Ed25519", "generation_timestamp": 1784289625, "identifier": "cbf25546-9908-49eb-b96c-7541f9bc388d"}</recraft-signature></metadata></svg>